<svg width="34" height="34" viewBox="0 0 34 34" fill="none" xmlns="http://www.w3.org/2000/svg">
<path d="M26.9167 5.66671H25.5V3.54171C25.5 3.15051 25.1829 2.83337 24.7917 2.83337H23.375C22.9838 2.83337 22.6667 3.15051 22.6667 3.54171V5.66671H11.3333V3.54171C11.3333 3.15051 11.0162 2.83337 10.625 2.83337H9.20833C8.81713 2.83337 8.5 3.15051 8.5 3.54171V5.66671H7.08333C5.51853 5.66671 4.25 6.93523 4.25 8.50004V26.9167C4.25 28.4815 5.51853 29.75 7.08333 29.75H26.9167C28.4815 29.75 29.75 28.4815 29.75 26.9167V8.50004C29.75 6.93523 28.4815 5.66671 26.9167 5.66671ZM26.9167 26.9167H7.08333V11.3334H26.9167V26.9167ZM16.2917 17H17.7083C18.0995 17 18.4167 16.6829 18.4167 16.2917V14.875C18.4167 14.4838 18.0995 14.1667 17.7083 14.1667H16.2917C15.9005 14.1667 15.5833 14.4838 15.5833 14.875V16.2917C15.5833 16.6829 15.9005 17 16.2917 17ZM21.9583 17H23.375C23.7662 17 24.0833 16.6829 24.0833 16.2917V14.875C24.0833 14.4838 23.7662 14.1667 23.375 14.1667H21.9583C21.5671 14.1667 21.25 14.4838 21.25 14.875V16.2917C21.25 16.6829 21.5671 17 21.9583 17ZM10.625 17H12.0417C12.4329 17 12.75 16.6829 12.75 16.2917V14.875C12.75 14.4838 12.4329 14.1667 12.0417 14.1667H10.625C10.2338 14.1667 9.91667 14.4838 9.91667 14.875V16.2917C9.91667 16.6829 10.2338 17 10.625 17ZM16.2917 22.6667H17.7083C18.0995 22.6667 18.4167 22.3496 18.4167 21.9584V20.5417C18.4167 20.1505 18.0995 19.8334 17.7083 19.8334H16.2917C15.9005 19.8334 15.5833 20.1505 15.5833 20.5417V21.9584C15.5833 22.3496 15.9005 22.6667 16.2917 22.6667ZM10.625 22.6667H12.0417C12.4329 22.6667 12.75 22.3496 12.75 21.9584V20.5417C12.75 20.1505 12.4329 19.8334 12.0417 19.8334H10.625C10.2338 19.8334 9.91667 20.1505 9.91667 20.5417V21.9584C9.91667 22.3496 10.2338 22.6667 10.625 22.6667Z" fill="#333333"/>
</svg>
