<svg width="24" height="30" viewBox="0 0 24 30" fill="none" xmlns="http://www.w3.org/2000/svg">
<path d="M13.4167 17.125C13.4167 17.5162 13.0996 17.8334 12.7084 17.8334H7.04175C6.65055 17.8334 6.33341 17.5162 6.33341 17.125V15.7084C6.33341 15.3172 6.65055 15 7.04175 15H12.7084C13.0996 15 13.4167 15.3172 13.4167 15.7084V17.125ZM17.6667 11.4584C17.6667 11.8496 17.3496 12.1667 16.9584 12.1667H7.04175C6.65055 12.1667 6.33341 11.8496 6.33341 11.4584V10.0417C6.33341 9.65051 6.65055 9.33337 7.04175 9.33337H16.9584C17.3496 9.33337 17.6667 9.65051 17.6667 10.0417V11.4584ZM21.9167 0.833374H2.08341C1.30101 0.833374 0.666748 1.46764 0.666748 2.25004V25.285C0.671966 25.6601 0.818709 26.0194 1.07758 26.2909L3.75508 28.9542C3.88298 29.0918 4.06306 29.169 4.25091 29.1667H4.66175C4.8496 29.169 5.02968 29.0918 5.15758 28.9542L7.75008 26.3334C7.88086 26.1999 8.05908 26.1235 8.24591 26.1209C8.43243 26.125 8.6101 26.2012 8.74175 26.3334L11.3059 28.8975C11.4338 29.0352 11.6139 29.1123 11.8017 29.11H12.2126C12.4004 29.1123 12.5805 29.0352 12.7084 28.8975L15.2867 26.3334C15.4175 26.1999 15.5957 26.1235 15.7826 26.1209C15.9592 26.1321 16.1255 26.2077 16.2501 26.3334L18.8142 28.8975C18.9421 29.0352 19.1222 29.1123 19.3101 29.11H19.7209C19.9088 29.1123 20.0888 29.0352 20.2167 28.8975L22.9226 26.3334C23.1843 26.0695 23.3318 25.7134 23.3334 25.3417V2.25004C23.3334 1.46764 22.6991 0.833374 21.9167 0.833374ZM20.5001 24.7184L19.5651 25.6534L18.5167 24.6192L18.2901 24.3925L17.8084 23.9109C17.5445 23.6492 17.1884 23.5016 16.8167 23.5H14.8334C14.4569 23.4979 14.0949 23.6457 13.8276 23.9109L12.0001 25.6675L10.2434 23.9109C9.97954 23.6492 9.6234 23.5016 9.25175 23.5H7.19758C6.82593 23.5016 6.46978 23.6492 6.20591 23.9109L4.46341 25.6534L3.50008 24.69V3.66671H20.5001V24.7184Z" fill="#333333"/>
</svg>
