<svg width="34" height="34" viewBox="0 0 34 34" fill="none" xmlns="http://www.w3.org/2000/svg">
<path d="M26.35 14.875C22.1213 14.875 18.7 19.1516 18.7 24.4375C18.7 29.7234 22.1213 34 26.35 34C30.5788 34 34 29.7234 34 24.4375C34 19.1516 30.5788 14.875 26.35 14.875ZM29.75 24.8559C29.75 25.2078 29.5163 25.5 29.2347 25.5H26.0153C25.7338 25.5 25.5 25.2078 25.5 24.8559V19.7691C25.5 19.4172 25.7338 19.125 26.0153 19.125H26.6847C26.9662 19.125 27.2 19.4172 27.2 19.7691V23.375H29.2347C29.5163 23.375 29.75 23.6672 29.75 24.0191V24.8559ZM17 24.4375C17 22.5914 17.3559 20.8449 17.9669 19.291C17.5419 19.1914 17.1063 19.125 16.66 19.125H15.7728C14.5934 19.8023 13.2812 20.1875 11.9 20.1875C10.5188 20.1875 9.21188 19.8023 8.02719 19.125H7.14C3.19812 19.125 0 23.1227 0 28.05V30.8125C0 32.5723 1.14219 34 2.55 34H20.9897C18.5831 31.8816 17 28.3887 17 24.4375ZM11.9 17C15.6559 17 18.7 13.1949 18.7 8.5C18.7 3.80508 15.6559 0 11.9 0C8.14406 0 5.1 3.80508 5.1 8.5C5.1 13.1949 8.14406 17 11.9 17Z" fill="#333333"/>
</svg>
